<svg width="401" height="191" viewBox="0 0 401 191" fill="none" xmlns="http://www.w3.org/2000/svg">
<g clip-path="url(#clip0_550_4738)">
<path d="M341.517 100.542H193.289C187.865 100.542 183.425 104.958 183.425 110.353V154.958H341.517C346.94 154.958 351.38 150.541 351.38 145.147V100.542H341.517Z" fill="#ED1C24"/>
<path d="M239.901 132.173C239.68 132.556 239.367 132.882 238.975 133.166C238.582 133.449 238.106 133.669 237.549 133.832C236.994 133.995 236.36 134.073 235.66 134.073C235.118 134.073 234.606 134.002 234.12 133.854C233.644 133.712 233.209 133.506 232.824 133.237C232.439 132.975 232.105 132.648 231.832 132.273C231.562 131.89 231.362 131.465 231.242 130.982L234.149 129.77C234.149 129.77 234.149 129.87 234.234 130.025C234.314 130.181 234.428 130.352 234.571 130.522C234.712 130.699 234.898 130.855 235.105 130.99C235.319 131.131 235.546 131.181 235.789 131.146C235.996 131.124 236.195 131.032 236.395 130.876C236.594 130.72 236.687 130.472 236.679 130.132C236.665 129.926 236.588 129.735 236.437 129.565C236.288 129.387 236.074 129.203 235.789 129.012C235.168 128.601 234.598 128.246 234.072 127.934C233.544 127.629 233.08 127.303 232.689 126.963C232.296 126.623 231.983 126.247 231.762 125.822C231.534 125.403 231.426 124.872 231.426 124.227C231.426 123.638 231.548 123.121 231.79 122.674C232.033 122.228 232.353 121.852 232.753 121.554C233.151 121.249 233.615 121.022 234.136 120.866C234.656 120.71 235.197 120.625 235.753 120.611C236.423 120.611 237.008 120.703 237.507 120.895C238.013 121.079 238.433 121.32 238.783 121.611C239.124 121.901 239.396 122.228 239.588 122.596C239.781 122.965 239.909 123.326 239.972 123.688L237.3 124.737C237.265 124.602 237.207 124.453 237.135 124.297C237.064 124.134 236.965 123.986 236.837 123.844C236.708 123.702 236.559 123.589 236.381 123.489C236.203 123.39 236.002 123.348 235.774 123.348C235.532 123.348 235.311 123.426 235.112 123.574C234.913 123.723 234.813 123.95 234.813 124.255C234.813 124.482 234.905 124.687 235.097 124.858C235.283 125.035 235.582 125.262 235.981 125.552C236.538 125.864 237.079 126.176 237.592 126.495C238.106 126.807 238.568 127.161 238.967 127.559C239.367 127.955 239.688 128.409 239.93 128.905C240.172 129.409 240.293 129.997 240.293 130.685V130.94C240.272 131.372 240.143 131.784 239.922 132.159L239.901 132.173Z" fill="#FDFDFD"/>
<path d="M253.859 123.667H250.786V134.088H247.729V123.667H244.657V120.626H253.859V123.667Z" fill="#FDFDFD"/>
<path d="M268.264 128.714C268.264 129.508 268.156 130.238 267.943 130.905C267.728 131.571 267.422 132.138 267.016 132.613C266.61 133.088 266.103 133.457 265.498 133.719C264.893 133.981 264.187 134.102 263.388 134.087H263.367C262.483 134.102 261.727 133.96 261.114 133.669C260.495 133.379 259.996 132.989 259.603 132.485C259.218 131.982 258.934 131.408 258.756 130.756C258.576 130.104 258.491 129.423 258.491 128.714V120.611H261.634V128.48C261.634 128.806 261.671 129.111 261.734 129.402C261.798 129.692 261.905 129.94 262.055 130.16C262.198 130.38 262.383 130.55 262.597 130.678C262.818 130.805 263.075 130.869 263.38 130.869C263.688 130.869 263.943 130.805 264.165 130.678C264.386 130.55 264.564 130.38 264.699 130.16C264.842 129.94 264.941 129.692 265.007 129.402C265.071 129.111 265.105 128.806 265.105 128.48V120.611H268.248V128.714H268.264Z" fill="#FDFDFD"/>
<path d="M282.203 127.353C282.203 128.261 282.096 129.118 281.896 129.927C281.69 130.742 281.354 131.458 280.876 132.067C280.406 132.684 279.787 133.173 279.023 133.535C278.261 133.896 277.327 134.081 276.223 134.081H273.094V120.626H275.824C276.879 120.626 277.805 120.796 278.604 121.143C279.402 121.483 280.072 121.958 280.606 122.554C281.141 123.149 281.54 123.865 281.803 124.688C282.067 125.517 282.203 126.403 282.203 127.353Z" fill="#FDFDFD"/>
<path d="M290.348 134.081H287.29V120.626H290.348V134.081Z" fill="#FDFDFD"/>
<path d="M305.11 130.713C304.909 131.379 304.567 131.968 304.083 132.478C303.584 133.01 303.021 133.414 302.379 133.69C301.745 133.967 301.068 134.109 300.354 134.109H300.333C299.629 134.109 298.958 133.967 298.324 133.69C297.689 133.414 297.113 133.017 296.606 132.499C296.136 131.996 295.801 131.422 295.594 130.784C295.395 130.146 295.287 129.465 295.273 128.742V125.595C295.273 125.013 295.388 124.425 295.622 123.83C295.85 123.234 296.179 122.702 296.606 122.249C297.113 121.731 297.682 121.334 298.316 121.058C298.944 120.781 299.621 120.639 300.333 120.639H300.354C301.068 120.639 301.745 120.781 302.379 121.058C303.013 121.334 303.584 121.731 304.083 122.249C304.518 122.709 304.845 123.227 305.066 123.801C305.288 124.382 305.402 124.978 305.415 125.595V128.742C305.415 129.395 305.315 130.054 305.116 130.72L305.11 130.713Z" fill="#FDFDFD"/>
<path d="M69.4591 78.7499C71.5687 78.8988 73.3149 78.36 74.7118 77.1407C76.1088 75.9213 77.1709 74.4611 77.912 72.7526L88.5675 78.672C88.1255 79.5509 87.4983 80.671 86.693 82.0322C85.8875 83.4004 84.7472 84.7401 83.2718 86.0517C81.8036 87.3702 79.9292 88.5046 77.6484 89.4474C75.3676 90.3973 72.5666 90.8722 69.231 90.8722H69.1597C65.4321 90.8722 62.3103 90.2909 59.7872 89.1213C57.2642 87.9516 55.2044 86.3777 53.615 84.407C52.0256 82.4291 50.8567 80.1393 50.1226 77.5376C49.3884 74.9289 48.9465 72.2138 48.7969 69.3852V58.1277C48.8468 55.448 49.2958 52.8039 50.1582 50.195C51.0135 47.5862 52.2893 45.261 53.9785 43.2123C55.6676 41.1635 57.7916 39.5188 60.336 38.2782C62.8805 37.0377 65.8455 36.4138 69.231 36.4138H69.3022C72.2885 36.4138 74.8615 36.8321 77.0212 37.6544C79.1736 38.4838 81.0268 39.5543 82.5734 40.8729C84.12 42.1914 85.3673 43.6801 86.3223 45.3319C87.2775 46.9908 88.0258 48.6496 88.5675 50.3014L77.912 56.2207C77.6198 55.3417 77.2137 54.4415 76.7004 53.5127C76.1873 52.5912 75.5601 51.7617 74.8259 51.0245C74.0918 50.2943 73.2579 49.7059 72.3243 49.2734C71.3906 48.8339 70.4141 48.6425 69.3807 48.685C66.8789 48.8835 64.8832 49.8689 63.3937 51.6483C61.8969 53.4277 61.1486 55.6607 61.1486 58.3404V68.9386C61.1486 71.6182 61.9112 73.8727 63.4293 75.7016C64.9474 77.5306 66.9574 78.5443 69.4591 78.7357V78.7499Z" fill="#FDFDFD"/>
<path d="M132.416 77.1832C131.61 79.8841 130.22 82.266 128.26 84.3078C126.25 86.4558 123.963 88.0862 121.39 89.2063C118.817 90.3264 116.087 90.8864 113.193 90.8864H113.122C110.278 90.8864 107.57 90.3264 104.997 89.2063C102.424 88.0862 100.107 86.4771 98.0475 84.3787C96.1375 82.3299 94.7762 80.0189 93.9707 77.4313C93.1653 74.8508 92.7306 72.0933 92.6807 69.1726V56.4477C92.6807 54.1082 93.144 51.7334 94.0776 49.3231C95.0113 46.9128 96.3299 44.7789 98.0475 42.9287C100.107 40.8303 102.41 39.2282 104.954 38.101C107.498 36.9809 110.221 36.4209 113.115 36.4209H113.186C116.08 36.4209 118.81 36.9809 121.383 38.101C123.956 39.2211 126.243 40.8303 128.253 42.9287C130.021 44.7789 131.339 46.8773 132.223 49.2167C133.107 51.5562 133.57 53.9664 133.62 56.4547V69.1796C133.62 71.8096 133.214 74.4822 132.409 77.1832H132.416Z" fill="#FDFDFD"/>
<path d="M185.007 90.8155H171.921V71.8096L165.236 90.8155H157.296L150.461 71.2212V90.8155H137.375V36.4209H149.948L161.266 68.0027L172.655 36.4209H185.007V90.8155Z" fill="#FDFDFD"/>
<path d="M213.374 37.6615C215.285 38.4909 216.917 39.6748 218.265 41.206C219.611 42.7444 220.652 44.5946 221.387 46.7639C222.12 48.9332 222.491 51.3577 222.491 54.0373C222.491 56.7169 222.12 59.0564 221.387 61.2044C220.652 63.3524 219.611 65.2026 218.265 66.7622C216.917 68.3219 215.285 69.527 213.374 70.3847C211.465 71.2355 209.334 71.6608 206.982 71.6608H202.863V90.8155H190.297V36.4209H206.982C209.334 36.4209 211.465 36.8392 213.374 37.6615Z" fill="#FDFDFD"/>
<path d="M254.244 76.4884H243.588L238.735 90.8155H224.694L240.723 36.4209H257.188L273.209 90.8155H259.168L254.244 76.4884Z" fill="#FDFDFD"/>
<path d="M311.319 83.1025C310.413 84.6338 309.158 85.9807 307.569 87.1221C305.973 88.2706 304.055 89.1709 301.796 89.823C299.544 90.4823 296.992 90.8085 294.149 90.8085C291.946 90.8085 289.872 90.5177 287.94 89.9293C286.002 89.3409 284.256 88.5187 282.688 87.4411C281.119 86.3706 279.787 85.0663 278.682 83.5279C277.578 81.9968 276.787 80.2528 276.294 78.3032L288.055 73.4047C287.954 73.4543 288.068 73.7946 288.383 74.4326C288.703 75.0636 289.153 75.7371 289.743 76.446C290.329 77.1549 291.056 77.7857 291.911 78.3458C292.766 78.9058 293.685 79.1115 294.669 78.9697C295.502 78.8703 296.322 78.5089 297.135 77.8709C297.939 77.2399 298.324 76.2403 298.276 74.8721C298.225 74.0427 297.897 73.2771 297.284 72.5682C296.672 71.8593 295.802 71.122 294.676 70.3422C292.174 68.6833 289.865 67.2372 287.726 65.9895C285.596 64.749 283.736 63.4445 282.139 62.0763C280.543 60.7153 279.295 59.1769 278.39 57.4684C277.485 55.767 277.029 53.6191 277.029 51.0386C277.029 48.6496 277.52 46.5583 278.497 44.7506C279.473 42.95 280.777 41.4329 282.396 40.2207C284.013 39.0013 285.873 38.0798 287.983 37.4417C290.093 36.8108 292.274 36.4634 294.526 36.4138C297.22 36.4138 299.587 36.7966 301.618 37.5481C303.649 38.3066 305.368 39.2636 306.764 40.4333C308.161 41.603 309.251 42.9287 310.035 44.4174C310.82 45.9061 311.332 47.3806 311.582 48.841L300.777 53.0803C300.627 52.5414 300.407 51.946 300.113 51.2867C299.821 50.6274 299.415 50.0178 298.902 49.4578C298.39 48.8977 297.777 48.4227 297.063 48.0328C296.351 47.6429 295.531 47.4515 294.597 47.4515C293.615 47.4515 292.723 47.7564 291.917 48.366C291.112 48.9757 290.706 49.8902 290.706 51.1095C290.706 52.0382 291.083 52.8534 291.847 53.5552C292.609 54.2642 293.793 55.1999 295.41 56.3696C297.663 57.6386 299.829 58.9075 301.917 60.1693C303.998 61.4383 305.851 62.8774 307.47 64.4796C309.087 66.0887 310.385 67.9035 311.369 69.924C312.344 71.9444 312.837 74.3476 312.837 77.1264V78.1473C312.736 79.9054 312.237 81.5501 311.332 83.0814L311.319 83.1025Z" fill="#FDFDFD"/>
<path d="M351.522 83.1025C350.617 84.6338 349.364 85.9807 347.774 87.1221C346.177 88.2706 344.26 89.1709 342.001 89.823C339.748 90.4823 337.197 90.8085 334.352 90.8085C332.151 90.8085 330.076 90.5177 328.144 89.9293C326.206 89.3409 324.46 88.5187 322.891 87.4411C321.324 86.3706 319.992 85.0663 318.886 83.5279C317.781 81.9968 316.99 80.2528 316.499 78.3032L328.258 73.4047C328.159 73.4543 328.273 73.7946 328.587 74.4326C328.908 75.0636 329.356 75.7371 329.948 76.446C330.532 77.1549 331.259 77.7857 332.114 78.3458C332.969 78.9058 333.89 79.1115 334.872 78.9697C335.708 78.8703 336.526 78.5089 337.338 77.8709C338.145 77.2399 338.529 76.2403 338.479 74.8721C338.429 74.0427 338.102 73.2771 337.489 72.5682C336.876 71.8593 336.006 71.122 334.88 70.3422C332.379 68.6833 330.07 67.2372 327.931 65.9895C325.8 64.749 323.939 63.4445 322.344 62.0763C320.746 60.7153 319.499 59.1769 318.594 57.4684C317.689 55.767 317.232 53.6191 317.232 51.0386C317.232 48.6496 317.725 46.5583 318.702 44.7506C319.677 42.95 320.982 41.4329 322.599 40.2207C324.218 39.0013 326.078 38.0798 328.188 37.4417C330.297 36.8108 332.478 36.4634 334.731 36.4138C337.425 36.4138 339.79 36.7966 341.823 37.5481C343.854 38.3066 345.571 39.2636 346.968 40.4333C348.366 41.603 349.455 42.9287 350.24 44.4174C351.023 45.9061 351.537 47.3806 351.787 48.841L340.982 53.0803C340.831 52.5414 340.61 51.946 340.318 51.2867C340.026 50.6274 339.62 50.0178 339.106 49.4578C338.593 48.8977 337.98 48.4227 337.268 48.0328C336.555 47.6429 335.735 47.4515 334.802 47.4515C333.818 47.4515 332.927 47.7564 332.122 48.366C331.316 48.9757 330.91 49.8902 330.91 51.1095C330.91 52.0382 331.288 52.8534 332.05 53.5552C332.813 54.2642 333.996 55.1999 335.615 56.3696C337.866 57.6386 340.034 58.9075 342.121 60.1693C344.202 61.4383 346.056 62.8774 347.673 64.4796C349.292 66.0887 350.588 67.9035 351.572 69.924C352.549 71.9444 353.04 74.3476 353.04 77.1264V78.1473C352.941 79.9054 352.443 81.5501 351.537 83.0814L351.522 83.1025Z" fill="#FDFDFD"/>
<path d="M75.4748 126.368C77.6773 126.368 79.5446 126.814 81.0627 127.722C82.5808 128.622 83.821 129.756 84.7761 131.124C85.7311 132.493 86.4296 133.974 86.8715 135.584C87.3133 137.193 87.5343 138.681 87.5343 140.043C87.5343 142.042 87.2278 143.942 86.6149 145.742C86.002 147.543 85.0967 149.138 83.8922 150.534C82.6877 151.924 81.1838 153.023 79.3736 153.824C77.5632 154.625 75.4535 155.029 73.0515 155.029H55.1904V100.634H68.2762H67.5421H67.9127C70.6069 100.634 72.9589 100.975 74.9689 101.655C76.9787 102.336 78.618 103.264 79.8938 104.434C81.1695 105.604 82.1247 106.972 82.7591 108.531C83.3933 110.091 83.7141 111.771 83.7141 113.579C83.7141 115.479 83.4575 117.208 82.9443 118.768C82.4311 120.328 81.7683 121.668 80.963 122.788C80.1575 123.908 79.2595 124.787 78.283 125.418C77.2994 126.049 76.373 126.368 75.4891 126.368H75.4748Z" fill="#FDFDFD"/>
<path d="M131.453 141.319C130.647 144.02 129.257 146.402 127.297 148.443C125.288 150.591 123 152.222 120.427 153.342C117.854 154.462 115.124 155.022 112.23 155.022H112.159C109.315 155.022 106.607 154.462 104.034 153.342C101.461 152.222 99.1444 150.612 97.0847 148.514C95.1745 146.465 93.8131 144.154 93.0078 141.567C92.2024 138.986 91.7677 136.229 91.7178 133.308V120.583C91.7178 118.244 92.181 115.869 93.1147 113.459C94.0483 111.048 95.3669 108.914 97.0847 107.064C99.1444 104.973 101.446 103.364 103.991 102.236C106.535 101.116 109.258 100.556 112.152 100.556H112.223C115.117 100.556 117.847 101.116 120.419 102.236C122.992 103.357 125.28 104.966 127.29 107.064C129.058 108.914 130.376 111.013 131.26 113.352C132.144 115.692 132.607 118.102 132.657 120.59V133.315C132.657 135.945 132.251 138.618 131.445 141.319H131.453Z" fill="#FDFDFD"/>
<path d="M158.534 127.757L173.238 154.951H159.418L152.362 140.624L145.306 154.951H131.486L146.19 127.757L131.486 100.556H145.306L152.362 114.883L159.418 100.556H173.238L158.534 127.757Z" fill="#FDFDFD"/>
</g>
<defs>
<clipPath id="clip0_550_4738">
<rect width="304.245" height="120.177" fill="white" transform="translate(48.7959 35.1562)"/>
</clipPath>
</defs>
</svg>
