<svg width="237" height="252" viewBox="0 0 237 252" fill="none" xmlns="http://www.w3.org/2000/svg">
<path opacity="0.1" d="M126.927 101.028L130.857 101.488L139.131 70.5938L132.66 101.915L136.38 103.269L151.555 75.1162L138.035 104.101L141.342 106.275L162.599 82.3828L142.761 107.466L145.478 110.345L171.678 91.9932L146.584 111.831L148.562 115.259L178.287 103.444L149.296 116.96L150.432 120.751L182.08 116.111L150.753 122.576L150.983 126.527L182.849 129.311L150.876 128.377L150.188 132.274L180.553 142.332L149.657 134.05L148.089 137.684L175.311 154.469L147.163 139.288L144.8 142.463L167.422 165.079L143.528 143.811L140.496 146.354L157.291 173.576L138.948 147.373L135.411 149.148L145.478 179.514L133.67 149.782L129.819 150.695L132.611 182.568L127.979 150.91H124.021L119.388 182.568L122.181 150.695L118.33 149.782L106.521 179.514L116.589 149.148L113.052 147.373L94.708 173.576L111.504 146.354L108.472 143.811L84.5771 165.079L107.2 142.463L104.837 139.288L76.6885 154.469L103.911 137.684L102.343 134.05L71.4463 142.332L101.812 132.274L101.124 128.377L69.1504 129.311L101.017 126.527L101.247 122.576L69.9189 116.111L101.568 120.751L102.704 116.96L73.7119 103.444L103.438 115.259L105.416 111.831L80.3213 91.9932L106.522 110.345L109.239 107.466L89.4004 82.3828L110.658 106.275L113.965 104.101L100.444 75.1162L115.62 103.269L119.34 101.915L112.868 70.5938L121.143 101.488L125.073 101.028L126 69.0449L126.927 101.028Z" stroke="#505050" stroke-width="4"/>
</svg>
