<svg width="642" height="785" viewBox="0 0 642 785" fill="none" xmlns="http://www.w3.org/2000/svg">
<g opacity="0.1" filter="url(#filter0_d_757_164)">
<path d="M463.473 239.468L467.403 239.928L543.082 -42.6494L483.892 243.835L487.61 245.188L626.414 -12.3145L502.753 252.794L506.06 254.969L700.503 36.4209L519.04 265.86L521.757 268.739L761.365 100.918L531.875 282.331L533.854 285.759L805.708 177.719L540.565 301.317L541.701 305.109L831.143 262.675L544.644 321.797L544.873 325.748L836.302 351.208L543.888 342.664L543.201 346.562L820.892 438.54L538.341 362.795L536.773 366.429L785.766 519.968L528.301 381.104L525.938 384.278L732.82 591.109L514.31 396.604L511.277 399.147L664.879 648.106L497.12 408.459L493.583 410.235L585.63 687.902L477.66 416.03L473.81 416.943L499.34 708.358L456.979 418.91H453.021L410.659 708.358L436.19 416.943L432.34 416.03L324.369 687.902L416.417 410.235L412.88 408.459L245.12 648.106L398.723 399.147L395.69 396.604L177.179 591.109L384.062 384.278L381.699 381.104L124.233 519.968L373.227 366.429L371.659 362.795L89.1074 438.54L366.799 346.562L366.112 342.664L73.6973 351.208L365.127 325.748L365.356 321.797L78.8564 262.675L368.299 305.109L369.435 301.317L104.291 177.719L376.146 285.759L378.125 282.331L148.634 100.918L388.243 268.739L390.96 265.86L209.496 36.4209L403.94 254.969L407.247 252.794L283.585 -12.3145L422.39 245.188L426.108 243.835L366.917 -42.6494L442.597 239.928L446.527 239.468L455 -52.9502L463.473 239.468Z" stroke="#505050" stroke-width="4" shape-rendering="crispEdges"/>
</g>
<defs>
<filter id="filter0_d_757_164" x="0.763062" y="-122" width="908.474" height="906.951" filterUnits="userSpaceOnUse" color-interpolation-filters="sRGB">
<feFlood flood-opacity="0" result="BackgroundImageFix"/>
<feColorMatrix in="SourceAlpha" type="matrix" values="0 0 0 0 0 0 0 0 0 0 0 0 0 0 0 0 0 0 127 0" result="hardAlpha"/>
<feOffset dy="4"/>
<feGaussianBlur stdDeviation="2"/>
<feComposite in2="hardAlpha" operator="out"/>
<feColorMatrix type="matrix" values="0 0 0 0 0 0 0 0 0 0 0 0 0 0 0 0 0 0 0.25 0"/>
<feBlend mode="normal" in2="BackgroundImageFix" result="effect1_dropShadow_757_164"/>
<feBlend mode="normal" in="SourceGraphic" in2="effect1_dropShadow_757_164" result="shape"/>
</filter>
</defs>
</svg>
