<svg width="13" height="8" viewBox="0 0 13 8" fill="none" xmlns="http://www.w3.org/2000/svg">
<path fill-rule="evenodd" clip-rule="evenodd" d="M0.191772 1.09328C0.245211 1.03093 0.310415 0.979717 0.383655 0.942576C0.456896 0.905436 0.536737 0.883092 0.618617 0.876824C0.700497 0.870555 0.78281 0.880484 0.86085 0.906043C0.938891 0.931601 1.01113 0.972288 1.07344 1.02578L6.50011 5.67661L11.9268 1.02578C12.0533 0.92422 12.2143 0.875839 12.3759 0.890865C12.5374 0.905891 12.6868 0.983145 12.7924 1.1063C12.898 1.22945 12.9516 1.38885 12.9419 1.55079C12.9321 1.71274 12.8598 1.86454 12.7401 1.97411L6.90677 6.97411C6.79351 7.07117 6.64926 7.12451 6.50011 7.12451C6.35095 7.12451 6.2067 7.07117 6.09344 6.97411L0.260105 1.97411C0.134426 1.86621 0.0567215 1.71283 0.0440648 1.54767C0.0314082 1.3825 0.0848345 1.21907 0.192605 1.09328" fill="#9C9C9C"/>
</svg>
