<svg width="132" height="132" viewBox="0 0 132 132" fill="none" xmlns="http://www.w3.org/2000/svg">
<g filter="url(#filter0_di_849_135)">
<rect x="6.32507" y="0.5" width="120" height="120" rx="60" fill="#1F1F1F" fill-opacity="0.3" shape-rendering="crispEdges"/>
<rect x="6.66793" y="0.842858" width="119.314" height="119.314" rx="59.6571" stroke="#4E4E4E" stroke-opacity="0.5" stroke-width="0.685717" shape-rendering="crispEdges"/>
<path fill-rule="evenodd" clip-rule="evenodd" d="M99.442 74.3022C99.2217 74.3022 98.9979 74.2098 98.8131 74.0428C98.4613 73.691 98.4613 73.1367 98.8131 72.8027C98.8308 72.7849 98.8308 72.7672 98.8486 72.7458V71.4311C98.8131 71.3032 98.774 71.1362 98.7562 70.987V70.9301C98.5715 67.6931 97.7008 64.5449 96.1658 61.5671C94.1653 57.662 91.2444 54.4428 87.4673 51.9804C84.3013 49.9443 80.7125 48.6864 76.7717 48.2423C75.9757 48.1499 75.123 48.1321 74.3093 48.1143C74.1814 48.1143 74.1067 48.1321 74.089 48.1712C73.8296 48.5798 73.293 48.7077 72.8844 48.4484C72.4758 48.189 72.3479 47.6524 72.6073 47.2438C72.959 46.6717 73.5879 46.3555 74.3484 46.3555C75.219 46.3732 76.0896 46.391 76.9778 46.4834C81.1956 46.9631 85.0474 48.3169 88.4339 50.4987C92.4882 53.1068 95.6151 56.5677 97.7433 60.7504C99.3707 63.9341 100.298 67.3205 100.518 70.7811C100.536 70.8734 100.554 70.9836 100.593 71.0973C100.611 71.1719 100.611 71.2465 100.611 71.3176V73.0197C100.611 73.2044 100.554 73.3892 100.444 73.5384L100.387 73.6131C100.295 73.741 100.202 73.8902 100.053 74.0395C99.8859 74.2065 99.6656 74.2988 99.4418 74.2988L99.442 74.3022Z" fill="#BEBEBE" stroke="#BEBEBE" stroke-width="1.2"/>
<path fill-rule="evenodd" clip-rule="evenodd" d="M55.5438 94.7733H53.9342C53.4545 94.7733 53.0459 94.386 53.0459 93.885C53.0459 93.3839 53.4332 92.9966 53.9342 92.9966H55.3947C55.5048 92.9611 55.6718 92.9043 55.8744 92.9043C59.1327 92.7195 62.2952 91.8489 65.2938 90.3317C69.2166 88.3134 72.4359 85.389 74.8805 81.6332C76.9166 78.4672 78.1744 74.8783 78.6186 70.9375C78.711 70.0848 78.7465 69.2355 78.7288 68.4005C78.7288 68.3258 78.711 68.2903 78.6932 68.2903C78.3415 67.9385 78.3592 67.402 78.6932 67.0502C79.045 66.6984 79.5993 66.7162 79.9334 67.0502C80.2496 67.3664 80.4344 67.8106 80.4699 68.308V68.3436C80.4877 69.2674 80.4521 70.1949 80.3598 71.1365C79.8801 75.3542 78.5263 79.206 76.3445 82.5926C73.7541 86.6078 70.2932 89.7347 66.0928 91.9019C62.8734 93.5506 59.4658 94.4745 55.952 94.677C55.9343 94.677 55.9343 94.677 55.9165 94.6948C55.8596 94.7126 55.8241 94.7303 55.7673 94.7517C55.6926 94.7694 55.618 94.7694 55.5469 94.7694L55.5438 94.7733Z" fill="#BEBEBE" stroke="#BEBEBE" stroke-width="1.2"/>
<path fill-rule="evenodd" clip-rule="evenodd" d="M51.7318 65.3834C51.6216 65.3834 51.5292 65.3656 51.4155 65.3265C51.0993 65.2164 50.8434 65.0316 50.6373 64.8078C48.7683 62.9031 47.2333 60.8103 46.0678 58.6072C44.014 54.7021 43.0511 50.5768 43.0333 45.6521C43.1079 39.0251 45.7339 32.8633 50.6196 27.793C51.0069 27.4056 51.4155 27.1818 51.8597 27.1249C52.3394 27.0503 52.7836 27.3843 52.8582 27.864C52.9329 28.3437 52.5988 28.7879 52.1192 28.8625C52.0836 28.8625 52.009 28.8981 51.8775 29.0295C47.3257 33.7661 44.8633 39.5223 44.8065 45.6661C44.8242 50.2747 45.7303 54.1407 47.6385 57.7862C48.7507 59.8791 50.1365 61.7659 51.9309 63.5781C51.9487 63.5959 51.9487 63.5959 51.9665 63.6136C51.9842 63.6314 52.002 63.6492 52.0588 63.6705C52.5208 63.8375 52.7446 64.3563 52.5776 64.8005C52.4284 65.1522 52.0979 65.3726 51.7248 65.3726L51.7318 65.3834Z" fill="#BEBEBE" stroke="#BEBEBE" stroke-width="1.2"/>
<path fill-rule="evenodd" clip-rule="evenodd" d="M80.8804 93.8849C80.5286 93.8849 80.1769 93.6646 80.0489 93.3128C79.8819 92.8509 80.1236 92.3499 80.5677 92.1828C80.6424 92.1651 80.7347 92.0905 80.8271 91.9981C85.4713 87.1691 87.7845 81.3734 87.8769 74.2882C87.8591 74.1212 87.8414 73.9186 87.8414 73.6948C87.8058 73.0481 87.7312 72.2522 87.6388 71.4384C87.0845 66.9612 85.2901 62.8323 82.3088 59.1509C82.3088 59.1509 82.3088 59.1331 82.2911 59.1331C81.8114 58.5042 81.2357 57.9107 80.7169 57.4133C80.6423 57.3565 80.6068 57.3387 80.589 57.3387C80.1093 57.2463 79.8108 56.7844 79.9032 56.3012C79.9956 55.8215 80.4575 55.523 80.9408 55.6154C81.2748 55.69 81.5875 55.857 81.9037 56.1164L81.9392 56.1519C82.4936 56.7062 83.1225 57.3352 83.6804 58.0565C86.8642 61.9971 88.7901 66.421 89.3799 71.2146C89.49 72.0674 89.5469 72.9344 89.6002 73.5633C89.618 73.8049 89.6357 74.0075 89.657 74.1745V74.2668C89.5647 81.8354 87.0845 88.0362 82.0885 93.2166C81.7936 93.5115 81.4951 93.7176 81.1824 93.8278C81.09 93.8633 80.9799 93.8846 80.8875 93.8846L80.8804 93.8849Z" fill="#BEBEBE" stroke="#BEBEBE" stroke-width="1.2"/>
<path fill-rule="evenodd" clip-rule="evenodd" d="M51.8249 83.8364C44.8853 83.744 38.7597 81.1891 33.632 76.2501C33.4117 76.0298 33.2447 75.7882 33.1132 75.5643C32.8929 75.1379 33.0777 74.6014 33.5005 74.381C33.9269 74.1607 34.4635 74.3455 34.6838 74.7684C34.7015 74.8039 34.7584 74.8785 34.8508 74.9887C39.6264 79.5973 45.3435 81.9851 51.8211 82.0775C55.2075 82.0598 58.1496 81.5232 61.0559 80.3932C64.1472 79.1709 66.9579 77.3409 69.4204 74.9354L69.4381 74.9176C69.5483 74.8074 69.5483 74.7328 69.5483 74.6973C69.5483 74.2176 69.9356 73.809 70.4366 73.809C70.9376 73.809 71.3249 74.1963 71.3249 74.6973C71.3249 75.2694 71.1046 75.7881 70.6569 76.1967C68.0275 78.7693 65.0107 80.7308 61.699 82.0278C58.6076 83.2323 55.3883 83.8222 51.8175 83.84L51.8249 83.8364Z" fill="#BEBEBE" stroke="#BEBEBE" stroke-width="1.2"/>
<path fill-rule="evenodd" clip-rule="evenodd" d="M98.8137 46.8777C98.4442 46.8777 98.1101 46.6361 97.9822 46.2665C97.9467 46.1564 97.8898 46.064 97.7975 45.9894C92.9862 41.3985 87.3047 39.032 80.8626 38.9396C77.4762 38.9574 74.5342 39.4939 71.6278 40.6239C68.5365 41.8463 65.7258 43.6762 63.2633 46.0818C63.2065 46.1386 63.1887 46.1564 63.1887 46.1742C63.004 46.6183 62.4852 46.8209 62.041 46.6361C61.5969 46.4513 61.3943 45.9148 61.5791 45.4706C61.707 45.1935 61.874 44.991 62.0233 44.8417C64.6527 42.2691 67.6694 40.3077 70.9812 38.9929C74.0548 37.7884 77.2919 37.2163 80.8627 37.1985C87.7667 37.2909 93.8716 39.8279 98.9992 44.7315C99.2942 45.0086 99.518 45.3604 99.6673 45.7477C99.8165 46.2096 99.5749 46.7107 99.1129 46.8599C99.0028 46.8777 98.9104 46.8777 98.818 46.8777L98.8137 46.8777Z" fill="#BEBEBE" stroke="#BEBEBE" stroke-width="1.2"/>
<path fill-rule="evenodd" clip-rule="evenodd" d="M58.4336 74.6753C57.4529 74.6753 56.5289 74.6398 55.6762 74.5474C52.3255 74.1778 49.2163 73.2327 46.3842 71.7722C42.2588 69.626 38.8512 66.5524 36.2607 62.5939C34.0577 59.2075 32.7075 55.3771 32.2064 51.2124C32.1709 50.8784 32.1496 50.5443 32.1318 50.2139C32.1318 50.1215 32.1318 50.0113 32.114 49.9189C32.0572 49.8088 32.0394 49.6986 32.0394 49.5672V49.1976V48.3661V48.3093C32.0572 48.1245 32.0963 47.8651 32.2064 47.6057C32.3912 47.1616 32.91 46.959 33.3541 47.1438C33.7983 47.3286 34.0008 47.8474 33.8161 48.2915C33.7983 48.327 33.7983 48.4016 33.7983 48.4763C33.7805 48.6966 33.7983 48.9382 33.7983 49.1798V49.2722C33.8338 49.3468 33.8551 49.4392 33.8551 49.5316C33.8729 49.7519 33.8729 49.958 33.8907 50.1783C33.9084 50.4946 33.9084 50.7717 33.9475 51.0489C34.4095 54.9362 35.6673 58.5072 37.7247 61.6735C40.1302 65.3548 43.314 68.2436 47.1804 70.2406C49.8099 71.6086 52.7307 72.4614 55.8612 72.831C56.6394 72.9056 57.5099 72.9589 58.416 72.9589C58.4729 72.9589 58.5084 72.9411 58.5084 72.9411C58.878 72.6249 59.4323 72.6462 59.7485 73.0158C60.0648 73.3853 60.0435 73.9396 59.6739 74.2559C59.3577 74.5153 58.9135 74.6823 58.4338 74.6823L58.4336 74.6753Z" fill="#BEBEBE" stroke="#BEBEBE" stroke-width="1.2"/>
<path fill-rule="evenodd" clip-rule="evenodd" d="M53.1209 53.8003C52.7514 53.8003 52.3996 53.5587 52.2895 53.1713C52.1971 52.8764 52.1793 52.5993 52.1971 52.2652C52.2895 49.7673 52.5844 47.5998 53.1209 45.6383C54.6737 40.049 57.8041 35.3866 62.3911 31.7771C65.6673 29.2222 69.4053 27.5202 73.5134 26.7243C74.4017 26.5573 75.2723 26.4471 76.1215 26.3547C76.4555 26.3192 76.7895 26.2801 77.12 26.2268H77.2302H77.6566H78.4881C78.5449 26.2268 78.616 26.2268 78.6728 26.2446H78.7083C79.188 26.2446 79.5789 26.6319 79.5789 27.1151C79.5789 27.5948 79.1703 27.9857 78.6906 27.9857C78.616 27.9857 78.5413 27.9857 78.4703 27.9679H78.4347H78.417C78.1967 27.9502 77.9373 27.9679 77.6779 27.9679H77.2693C76.953 28.0035 76.6403 28.0425 76.3063 28.0781C75.4926 28.1705 74.6398 28.2806 73.8083 28.4299C69.9779 29.1689 66.4991 30.7608 63.4429 33.1486C59.1505 36.5172 56.2439 40.8665 54.78 46.0866C54.279 47.92 54.0018 49.9561 53.9094 52.3226V52.3582C53.8916 52.4861 53.9094 52.5607 53.9272 52.6353C54.0764 53.0973 53.7993 53.5983 53.3338 53.7262C53.2769 53.783 53.2059 53.8008 53.1099 53.8008L53.1209 53.8003Z" fill="#BEBEBE" stroke="#BEBEBE" stroke-width="1.2"/>
<path fill-rule="evenodd" clip-rule="evenodd" d="M65.8915 67.5293C61.9118 67.5293 58.6925 64.2922 58.6925 60.3303C58.6925 56.3506 61.9296 53.1312 65.8915 53.1312C69.8712 53.1312 73.0906 56.3683 73.0906 60.3303C73.0906 64.2922 69.8712 67.5293 65.8915 67.5293ZM65.8915 54.8688C62.8925 54.8688 60.4514 57.3135 60.4514 60.309C60.4514 63.308 62.8961 65.7491 65.8915 65.7491C68.8906 65.7491 71.3317 63.3044 71.3317 60.309C71.3317 57.31 68.887 54.8688 65.8915 54.8688Z" fill="#BEBEBE" stroke="#BEBEBE" stroke-width="1.2"/>
</g>
<defs>
<filter id="filter0_di_849_135" x="0.839338" y="0.5" width="130.971" height="130.971" filterUnits="userSpaceOnUse" color-interpolation-filters="sRGB">
<feFlood flood-opacity="0" result="BackgroundImageFix"/>
<feColorMatrix in="SourceAlpha" type="matrix" values="0 0 0 0 0 0 0 0 0 0 0 0 0 0 0 0 0 0 127 0" result="hardAlpha"/>
<feOffset dy="5.48573"/>
<feGaussianBlur stdDeviation="2.74287"/>
<feComposite in2="hardAlpha" operator="out"/>
<feColorMatrix type="matrix" values="0 0 0 0 0 0 0 0 0 0 0 0 0 0 0 0 0 0 0.25 0"/>
<feBlend mode="normal" in2="BackgroundImageFix" result="effect1_dropShadow_849_135"/>
<feBlend mode="normal" in="SourceGraphic" in2="BackgroundImageFix" result="shape"/>
<feColorMatrix in="SourceAlpha" type="matrix" values="0 0 0 0 0 0 0 0 0 0 0 0 0 0 0 0 0 0 127 0" result="hardAlpha"/>
<feOffset dy="5.48573"/>
<feGaussianBlur stdDeviation="2.74287"/>
<feComposite in2="hardAlpha" operator="arithmetic" k2="-1" k3="1"/>
<feColorMatrix type="matrix" values="0 0 0 0 0 0 0 0 0 0 0 0 0 0 0 0 0 0 0.25 0"/>
<feBlend mode="normal" in2="shape" result="effect2_innerShadow_849_135"/>
<feBlend mode="normal" in="effect2_innerShadow_849_135" in2="effect1_dropShadow_849_135" result="effect2_innerShadow_849_135"/>
</filter>
</defs>
</svg>
