<svg width="109" height="109" viewBox="0 0 109 109" fill="none" xmlns="http://www.w3.org/2000/svg">
<circle cx="54.5" cy="54.5" r="53.4519" stroke="#EFEFEF" stroke-width="2.09615"/>
<path fill-rule="evenodd" clip-rule="evenodd" d="M57.5814 40.8133C57.8762 40.5189 58.2757 40.3535 58.6923 40.3535C59.109 40.3535 59.5085 40.5189 59.8033 40.8133L72.3802 53.3902C72.6746 53.685 72.84 54.0846 72.84 54.5012C72.84 54.9178 72.6746 55.3174 72.3802 55.6122L59.8033 68.1891C59.6594 68.3435 59.4858 68.4674 59.293 68.5533C59.1001 68.6393 58.892 68.6855 58.6809 68.6892C58.4698 68.6929 58.2601 68.6541 58.0643 68.575C57.8686 68.496 57.6908 68.3783 57.5415 68.229C57.3922 68.0797 57.2745 67.9019 57.1954 67.7061C57.1164 67.5104 57.0775 67.3007 57.0813 67.0896C57.085 66.8785 57.1312 66.6703 57.2171 66.4775C57.303 66.2846 57.4269 66.1111 57.5814 65.9672L67.4752 56.0733H37.7308C37.3139 56.0733 36.914 55.9077 36.6192 55.6128C36.3243 55.318 36.1587 54.9181 36.1587 54.5012C36.1587 54.0842 36.3243 53.6844 36.6192 53.3895C36.914 53.0947 37.3139 52.9291 37.7308 52.9291H67.4752L57.5814 43.0352C57.287 42.7405 57.1216 42.3409 57.1216 41.9243C57.1216 41.5077 57.287 41.1081 57.5814 40.8133Z" fill="#CCD0D7"/>
</svg>
