<svg width="471" height="470" viewBox="0 0 471 470" fill="none" xmlns="http://www.w3.org/2000/svg">
<path opacity="0.1" d="M238.969 188.776L242.899 189.236L273.885 73.541L249.65 190.836L253.37 192.189L310.198 86.7617L259.569 195.303L262.876 197.478L342.484 107.999L268.19 201.938L270.906 204.816L369.01 136.104L275.05 210.381L277.028 213.809L388.324 169.577L279.776 220.179L280.911 223.971L399.415 206.597L282.116 230.803L282.347 234.754L401.666 245.178L281.942 241.68L281.256 245.577L394.957 283.238L279.266 252.224L277.698 255.857L379.646 318.723L274.229 261.866L271.866 265.041L356.569 349.723L267.105 270.087L264.073 272.631L326.96 374.558L258.277 276.443L254.74 278.22L292.429 391.91L248.221 280.592L244.37 281.505L254.824 400.831L237.479 282.311H233.521L216.175 400.831L226.63 281.505L222.779 280.592L178.57 391.91L216.26 278.22L212.723 276.443L144.039 374.558L206.927 272.631L203.895 270.087L114.43 349.723L199.134 265.041L196.771 261.866L91.3535 318.723L193.302 255.857L191.734 252.224L76.042 283.238L189.744 245.577L189.058 241.68L69.333 245.178L188.653 234.754L188.884 230.803L71.584 206.597L190.089 223.971L191.224 220.179L82.6748 169.577L193.972 213.809L195.95 210.381L101.984 136.102L200.094 204.816L202.81 201.938L128.515 107.999L208.124 197.478L211.431 195.303L160.801 86.7617L217.63 192.189L221.35 190.836L197.114 73.541L228.101 189.236L232.031 188.776L235.5 69.0527L238.969 188.776Z" stroke="#505050" stroke-width="4"/>
</svg>
